<?xml version="1.0" encoding="iso-8859-1"?>
<!-- Generator: Adobe Illustrator 19.0.0, SVG Export Plug-In . SVG Version: 6.00 Build 0)  -->
<svg version="1.1" id="Layer_1" xmlns="http://www.w3.org/2000/svg" xmlns:xlink="http://www.w3.org/1999/xlink" x="0px" y="0px"
	 viewBox="0 0 357.553 357.553" style="enable-background:new 0 0 357.553 357.553;" xml:space="preserve">
<g>
	<g>
		<path d="M244.626,0.183c-62.269,0-113.013,50.744-113.013,113.013c0,23.136,6.966,44.638,18.921,62.527l-2.064,2.064
			c-5.849,6.021-7.311,14.707-4.558,22.018l-21.072,21.072l-2.494-2.494c-1.118-1.118-2.838-1.118-3.956,0L6.128,322.107
			c-8.171,8.171-8.171,21.158,0,29.329c3.956,3.956,9.289,5.935,14.621,5.935c5.332,0,10.751-1.978,14.621-5.935l103.725-110.261
			c1.118-1.118,1.118-2.838,0-3.956l-2.494-2.494l21.071-21.071c2.322,0.86,4.816,1.376,7.397,1.376
			c5.075,0,10.407-1.978,14.363-6.193l1.892-1.892c18.062,12.213,39.822,19.351,63.215,19.351
			c62.269,0,113.013-51.002,113.013-113.013C357.725,50.927,306.981,0.183,244.626,0.183z M31.586,347.221
			c-5.935,5.935-15.482,5.935-21.416,0c-5.333-5.074-5.849-13.245-1.634-19.179l12.385,12.127c0.602,0.602,1.118,0.86,1.978,0.86
			c0.602,0,1.376-0.258,1.978-0.86c1.118-1.118,1.118-2.838,0-3.956l-12.471-12.213l106.047-99.682l2.494,2.494l9.891,9.891
			l2.494,2.494L31.586,347.221z M132.73,230.768l-5.935-5.935l20.04-20.04c0.516,0.688,1.118,1.376,1.72,1.978l2.236,2.236
			c0.602,0.602,1.29,1.204,1.978,1.72L132.73,230.768z M175.562,204.879c-5.677,5.677-15.223,5.677-20.9,0l-2.236-2.236
			c-5.677-5.677-5.677-15.223,0-20.9l1.376-1.376c6.536,8.773,14.277,16.599,23.05,23.222L175.562,204.879z M244.626,220.361
			c-59.173,0-107.423-48.164-107.423-107.423c0-59.259,48.164-107.423,107.423-107.423s107.423,48.164,107.423,107.423
			C352.049,172.197,303.884,220.361,244.626,220.361z"/>
	</g>
</g>
<g>
	<g>
		<path d="M244.626,22.201c-49.884,0-90.737,40.853-90.737,90.737s40.595,90.737,90.737,90.737s90.738-40.853,90.738-90.737
			C335.449,63.054,294.596,22.201,244.626,22.201z M244.626,198.085c-46.788,0-85.147-38.359-85.147-85.147
			s38.015-85.146,85.147-85.146s85.147,38.359,85.147,85.147C329.773,159.726,291.413,198.085,244.626,198.085z"/>
	</g>
</g>
<g>
	<g>
		<path d="M308.099,76.643c-13.847-23.652-39.219-37.757-66.57-36.639c-1.72,0-2.838,1.118-2.838,2.838
			c0,1.72,1.118,2.838,2.838,2.838c25.372-1.118,48.766,11.869,61.495,33.801c0.602,0.86,1.72,1.376,2.494,1.376
			c0.602,0,1.118,0,1.376-0.258C308.357,79.739,308.959,78.019,308.099,76.643z"/>
	</g>
</g>
<g>
</g>
<g>
</g>
<g>
</g>
<g>
</g>
<g>
</g>
<g>
</g>
<g>
</g>
<g>
</g>
<g>
</g>
<g>
</g>
<g>
</g>
<g>
</g>
<g>
</g>
<g>
</g>
<g>
</g>
</svg>
